<svg aria-hidden="true" style="position: absolute; width: 0; height: 0; overflow: hidden;" version="1.1" xmlns="http://www.w3.org/2000/svg" xmlns:xlink="http://www.w3.org/1999/xlink">
<defs>
<symbol id="icon-cart" viewBox="0 0 32 32">
<title>cart</title>
<path d="M12 29c0 1.657-1.343 3-3 3s-3-1.343-3-3c0-1.657 1.343-3 3-3s3 1.343 3 3z"></path>
<path d="M32 29c0 1.657-1.343 3-3 3s-3-1.343-3-3c0-1.657 1.343-3 3-3s3 1.343 3 3z"></path>
<path d="M32 16v-12h-24c0-1.105-0.895-2-2-2h-6v2h4l1.502 12.877c-0.915 0.733-1.502 1.859-1.502 3.123 0 2.209 1.791 4 4 4h24v-2h-24c-1.105 0-2-0.895-2-2 0-0.007 0-0.014 0-0.020l26-3.98z"></path>
</symbol>
<symbol id="icon-coin-dollar" viewBox="0 0 32 32">
<title>coin-dollar</title>
<path d="M15 2c-8.284 0-15 6.716-15 15s6.716 15 15 15c8.284 0 15-6.716 15-15s-6.716-15-15-15zM15 29c-6.627 0-12-5.373-12-12s5.373-12 12-12c6.627 0 12 5.373 12 12s-5.373 12-12 12zM16 16v-4h4v-2h-4v-2h-2v2h-4v8h4v4h-4v2h4v2h2v-2h4l-0-8h-4zM14 16h-2v-4h2v4zM18 22h-2v-4h2v4z"></path>
</symbol>
<symbol id="icon-credit-card" viewBox="0 0 32 32">
<title>credit-card</title>
<path d="M29 4h-26c-1.65 0-3 1.35-3 3v18c0 1.65 1.35 3 3 3h26c1.65 0 3-1.35 3-3v-18c0-1.65-1.35-3-3-3zM3 6h26c0.542 0 1 0.458 1 1v3h-28v-3c0-0.542 0.458-1 1-1zM29 26h-26c-0.542 0-1-0.458-1-1v-9h28v9c0 0.542-0.458 1-1 1zM4 20h2v4h-2zM8 20h2v4h-2zM12 20h2v4h-2z"></path>
</symbol>
<symbol id="icon-spinner6" viewBox="0 0 32 32">
<title>spinner6</title>
<path d="M12 4c0-2.209 1.791-4 4-4s4 1.791 4 4c0 2.209-1.791 4-4 4s-4-1.791-4-4zM24.719 16c0 0 0 0 0 0 0-1.812 1.469-3.281 3.281-3.281s3.281 1.469 3.281 3.281c0 0 0 0 0 0 0 1.812-1.469 3.281-3.281 3.281s-3.281-1.469-3.281-3.281zM21.513 24.485c0-1.641 1.331-2.972 2.972-2.972s2.972 1.331 2.972 2.972c0 1.641-1.331 2.972-2.972 2.972s-2.972-1.331-2.972-2.972zM13.308 28c0-1.487 1.205-2.692 2.692-2.692s2.692 1.205 2.692 2.692c0 1.487-1.205 2.692-2.692 2.692s-2.692-1.205-2.692-2.692zM5.077 24.485c0-1.346 1.092-2.438 2.438-2.438s2.438 1.092 2.438 2.438c0 1.346-1.092 2.438-2.438 2.438s-2.438-1.092-2.438-2.438zM1.792 16c0-1.22 0.989-2.208 2.208-2.208s2.208 0.989 2.208 2.208c0 1.22-0.989 2.208-2.208 2.208s-2.208-0.989-2.208-2.208zM5.515 7.515c0 0 0 0 0 0 0-1.105 0.895-2 2-2s2 0.895 2 2c0 0 0 0 0 0 0 1.105-0.895 2-2 2s-2-0.895-2-2zM28.108 7.515c0 2.001-1.622 3.623-3.623 3.623s-3.623-1.622-3.623-3.623c0-2.001 1.622-3.623 3.623-3.623s3.623 1.622 3.623 3.623z"></path>
</symbol>
<symbol id="icon-star-empty" viewBox="0 0 32 32">
<title>star-empty</title>
<path d="M32 12.408l-11.056-1.607-4.944-10.018-4.944 10.018-11.056 1.607 8 7.798-1.889 11.011 9.889-5.199 9.889 5.199-1.889-11.011 8-7.798zM16 23.547l-6.983 3.671 1.334-7.776-5.65-5.507 7.808-1.134 3.492-7.075 3.492 7.075 7.807 1.134-5.65 5.507 1.334 7.776-6.983-3.671z"></path>
</symbol>
<symbol id="icon-question" viewBox="0 0 32 32">
<title>question</title>
<path d="M14 22h4v4h-4zM22 8c1.105 0 2 0.895 2 2v6l-6 4h-4v-2l6-4v-2h-10v-4h12zM16 3c-3.472 0-6.737 1.352-9.192 3.808s-3.808 5.72-3.808 9.192c0 3.472 1.352 6.737 3.808 9.192s5.72 3.808 9.192 3.808c3.472 0 6.737-1.352 9.192-3.808s3.808-5.72 3.808-9.192c0-3.472-1.352-6.737-3.808-9.192s-5.72-3.808-9.192-3.808zM16 0v0c8.837 0 16 7.163 16 16s-7.163 16-16 16c-8.837 0-16-7.163-16-16s7.163-16 16-16z"></path>
</symbol>
<symbol id="icon-plus" viewBox="0 0 32 32">
<title>plus</title>
<path d="M31 12h-11v-11c0-0.552-0.448-1-1-1h-6c-0.552 0-1 0.448-1 1v11h-11c-0.552 0-1 0.448-1 1v6c0 0.552 0.448 1 1 1h11v11c0 0.552 0.448 1 1 1h6c0.552 0 1-0.448 1-1v-11h11c0.552 0 1-0.448 1-1v-6c0-0.552-0.448-1-1-1z"></path>
</symbol>
<symbol id="icon-minus" viewBox="0 0 32 32">
<title>minus</title>
<path d="M0 13v6c0 0.552 0.448 1 1 1h30c0.552 0 1-0.448 1-1v-6c0-0.552-0.448-1-1-1h-30c-0.552 0-1 0.448-1 1z"></path>
</symbol>
<symbol id="icon-info" viewBox="0 0 32 32">
<title>info</title>
<path d="M14 9.5c0-0.825 0.675-1.5 1.5-1.5h1c0.825 0 1.5 0.675 1.5 1.5v1c0 0.825-0.675 1.5-1.5 1.5h-1c-0.825 0-1.5-0.675-1.5-1.5v-1z"></path>
<path d="M20 24h-8v-2h2v-6h-2v-2h6v8h2z"></path>
<path d="M16 0c-8.837 0-16 7.163-16 16s7.163 16 16 16 16-7.163 16-16-7.163-16-16-16zM16 29c-7.18 0-13-5.82-13-13s5.82-13 13-13 13 5.82 13 13-5.82 13-13 13z"></path>
</symbol>
<symbol id="icon-cancel-circle" viewBox="0 0 32 32">
<title>cancel-circle</title>
<path d="M16 0c-8.837 0-16 7.163-16 16s7.163 16 16 16 16-7.163 16-16-7.163-16-16-16zM16 29c-7.18 0-13-5.82-13-13s5.82-13 13-13 13 5.82 13 13-5.82 13-13 13z"></path>
<path d="M21 8l-5 5-5-5-3 3 5 5-5 5 3 3 5-5 5 5 3-3-5-5 5-5z"></path>
</symbol>
<symbol id="icon-checkmark" viewBox="0 0 32 32">
<title>checkmark</title>
<path d="M27 4l-15 15-7-7-5 5 12 12 20-20z"></path>
</symbol>
<symbol id="icon-checkmark2" viewBox="0 0 32 32">
<title>checkmark2</title>
<path d="M12.42 28.678l-12.433-12.238 6.168-6.071 6.265 6.167 13.426-13.214 6.168 6.071-19.594 19.285zM3.372 16.441l9.048 8.905 16.208-15.953-2.782-2.739-13.426 13.214-6.265-6.167-2.782 2.739z"></path>
</symbol>
<symbol id="icon-circle-up" viewBox="0 0 32 32">
<title>circle-up</title>
<path d="M0 16c0 8.837 7.163 16 16 16s16-7.163 16-16-7.163-16-16-16-16 7.163-16 16zM29 16c0 7.18-5.82 13-13 13s-13-5.82-13-13 5.82-13 13-13 13 5.82 13 13z"></path>
<path d="M22.086 20.914l2.829-2.829-8.914-8.914-8.914 8.914 2.828 2.828 6.086-6.086z"></path>
</symbol>
<symbol id="icon-circle-right" viewBox="0 0 32 32">
<title>circle-right</title>
<path d="M16 0c-8.837 0-16 7.163-16 16s7.163 16 16 16 16-7.163 16-16-7.163-16-16-16zM16 29c-7.18 0-13-5.82-13-13s5.82-13 13-13 13 5.82 13 13-5.82 13-13 13z"></path>
<path d="M11.086 22.086l2.829 2.829 8.914-8.914-8.914-8.914-2.828 2.828 6.086 6.086z"></path>
</symbol>
<symbol id="icon-circle-down" viewBox="0 0 32 32">
<title>circle-down</title>
<path d="M32 16c0-8.837-7.163-16-16-16s-16 7.163-16 16 7.163 16 16 16 16-7.163 16-16zM3 16c0-7.18 5.82-13 13-13s13 5.82 13 13-5.82 13-13 13-13-5.82-13-13z"></path>
<path d="M9.914 11.086l-2.829 2.829 8.914 8.914 8.914-8.914-2.828-2.828-6.086 6.086z"></path>
</symbol>
<symbol id="icon-circle-left" viewBox="0 0 32 32">
<title>circle-left</title>
<path d="M16 32c8.837 0 16-7.163 16-16s-7.163-16-16-16-16 7.163-16 16 7.163 16 16 16zM16 3c7.18 0 13 5.82 13 13s-5.82 13-13 13-13-5.82-13-13 5.82-13 13-13z"></path>
<path d="M20.914 9.914l-2.829-2.829-8.914 8.914 8.914 8.914 2.828-2.828-6.086-6.086z"></path>
</symbol>
</defs>
</svg>
